<svg width="32" height="32" viewBox="0 0 32 32" fill="none" xmlns="http://www.w3.org/2000/svg">
  <!-- Background gradient -->
  <defs>
    <linearGradient id="bgGradient" x1="0%" y1="0%" x2="100%" y2="100%">
      <stop offset="0%" style="stop-color:#3B82F6;stop-opacity:1" />
      <stop offset="50%" style="stop-color:#6366F1;stop-opacity:1" />
      <stop offset="100%" style="stop-color:#8B5CF6;stop-opacity:1" />
    </linearGradient>
    <filter id="shadow" x="-20%" y="-20%" width="140%" height="140%">
      <feDropShadow dx="0" dy="1" stdDeviation="1" flood-color="#000000" flood-opacity="0.3"/>
    </filter>
  </defs>

  <!-- Rounded rectangle background with shadow -->
  <rect width="32" height="32" rx="8" fill="url(#bgGradient)" filter="url(#shadow)"/>

  <!-- T letter -->
  <g fill="white">
    <!-- T horizontal bar -->
    <rect x="6" y="9" width="10" height="2.5" rx="1"/>
    <!-- T vertical bar -->
    <rect x="9.75" y="9" width="2.5" height="14" rx="1"/>
  </g>

  <!-- B letter -->
  <g fill="white">
    <!-- B vertical bar -->
    <rect x="18" y="9" width="2.5" height="14" rx="1"/>
    <!-- B top section -->
    <path d="M18 9 L25 9 C25.8 9 26.5 9.7 26.5 10.5 L26.5 13 C26.5 13.8 25.8 14.5 25 14.5 L18 14.5" stroke="white" stroke-width="2.5" stroke-linecap="round" fill="none"/>
    <!-- B bottom section -->
    <path d="M18 17.5 L26 17.5 C26.8 17.5 27.5 18.2 27.5 19 L27.5 21.5 C27.5 22.3 26.8 23 26 23 L18 23" stroke="white" stroke-width="2.5" stroke-linecap="round" fill="none"/>
  </g>

  <!-- Subtle highlight -->
  <ellipse cx="12" cy="12" rx="4" ry="2" fill="white" opacity="0.1"/>
</svg>
